<svg id="Layer_1" data-name="Layer 1" xmlns="http://www.w3.org/2000/svg" viewBox="0 0 360 141"><defs><style>.cls-1{fill:#eb5777;}.cls-2{fill:#fff;}</style></defs><title>footer-logo</title><path class="cls-1" d="M333.16,32.59a4.14,4.14,0,0,1,8.27,0l1.54,11a22.45,22.45,0,0,0,10.4-5.86L344.69,31a4.14,4.14,0,0,1,4.13-7.16L359.13,28a22.42,22.42,0,0,0,.13-11.93L349.06,20.2A4.14,4.14,0,0,1,344.93,13l8.76-6.83A22.44,22.44,0,0,0,343.43.12L341.91,11h0a4.14,4.14,0,0,1-8.27,0h0L332.1,0a22.45,22.45,0,0,0-10.4,5.86l8.67,6.76a4.14,4.14,0,0,1-4.13,7.16l-10.3-4.17a22.63,22.63,0,0,0-.87,6.2,22.4,22.4,0,0,0,.74,5.74L326,23.41a4.14,4.14,0,0,1,4.14,7.16l-8.76,6.83a22.44,22.44,0,0,0,10.27,6.08Z"/><path class="cls-2" d="M195.56,72.8c0,13.6-10.56,23.88-24.07,23.88a23.38,23.38,0,0,1-23.3-23.5c0-12.84,10.94-23.59,23.78-23.59A23.45,23.45,0,0,1,195.56,72.8M184,85.83a21.43,21.43,0,0,0,4-13.13c0-9.8-5.61-18.45-16.17-18.45-11,0-16,9.51-16,19.31S161,92,171.59,92A15.5,15.5,0,0,0,184,85.83m-48-31h7.71c1.81,0,4.09.09,4.09-2.38,0-2.66-2.38-2.19-4.47-2.19h-7.32v-14c0-1.33,0-3.61-2-3.61-2.47,0-2.57,3.8-2.76,5.52a46.34,46.34,0,0,1-2.09,9.7c-0.95,2.38-2.85,2.38-4.76,2.38-1.43,0-3.14.29-3.14,1.81,0,3.33,2.85,2.76,7.61,2.76V90.68c0,2.66.19,4.57,3.33,4.57H145c1.43,0,2.95-.76,2.95-2.38,0-3.14-4.18-2.28-6.08-2.28-5.52,0-5.9-2.57-5.9-7.32V54.82Zm-13.5,18c0,13.6-10.56,23.88-24.07,23.88A23.38,23.38,0,0,1,75,73.18C75,60.34,86,49.59,98.83,49.59A23.44,23.44,0,0,1,122.42,72.8m-11.6,13a21.43,21.43,0,0,0,4-13.13c0-9.8-5.61-18.45-16.17-18.45-11,0-16,9.51-16,19.31S87.89,92,98.45,92a15.5,15.5,0,0,0,12.37-6.18M47.56,51.49l9.22-21.88c0.67-1.81,1.33-4,3.52-4H72.58c1.62,0,2.66.19,2.66,2.38,0,1.43-1.43,1.81-2.57,2.09-3.23.86-3.9,1.43-3.9,4.95V88.49c0,1.52,2.19,1.81,3.52,2.19s2.85,0.57,2.85,2.38c0,2.09-1.81,2.19-3.43,2.19H58.88c-1.52,0-3.33-.19-3.33-2.19,0-1.52,1-1.81,2.19-2.28,3.42-1.33,2.66-1.71,2.66-5.61V35.32l-13.7,32L39.57,82c-0.57,1.14-1.9,4.18-3.52,4.18s-2.28-1.71-2.85-2.85L23,61.57l-9.32-23L11.8,33.8V88.11c0.29,1.71,2,2,3.52,2.57s3,0.86,3,2.66c0,1.43-1.33,1.9-2.57,1.9H4.38c-1.71,0-3.43,0-3.43-2.09,0-1.52,1-1.9,2.29-2.38C6.18,89.64,6.18,89.16,6.18,86V33.51C6.18,27.9,0,31,0,27.71c0-1.52,1.14-2.09,2.57-2.09H15.22c2.38-.09,3.14,3.33,3.9,5L37,73.37Z"/><path class="cls-2" d="M306.18,49.59c-12.84,0-23.78,10.75-23.78,23.59a23.38,23.38,0,0,0,23.3,23.5c13.51,0,24.07-10.27,24.07-23.88a23.44,23.44,0,0,0-23.59-23.21M305.8,92C295.24,92,290,83.26,290,73.56S295,54.25,306,54.25c10.56,0,16.17,8.66,16.17,18.45a21.43,21.43,0,0,1-4,13.13A15.5,15.5,0,0,1,305.8,92M265.66,72.89a18.38,18.38,0,0,1,2.76-10.08c1.33-2.28,4.09-5.9,6.94-5.9,1.9,0,4.19,2,5.8,2s2.19-2.19,2.19-3.52c0-3.52-1.71-5.8-5.42-5.8-5.33,0-10.84,7.42-12.75,12-0.38-2.76-1.43-12-5.14-12-1.33,0-4.28,2.09-5.33,2.85s-2.47,1.81-2.47,3.23c0,1.24,1.33,1.62,2.19,2a7.52,7.52,0,0,1,4.09,6.94V87.45c0,3-2.38,3.33-3.23,3.61a2.12,2.12,0,0,0-1.62,1.9c0,2.19,1.71,2.28,3.23,2.28h10.18c1.62,0,3.14-.19,3.14-2.28,0-1.14-.76-1.52-1.71-2-0.86-.29-2.85-0.67-2.85-3.52V72.89Zm-53.93-4.28c8.66-.1,17.88-0.86,25.78-4.76,7.71-3.8,14.65-10.75,14.65-20,0-6.75-3.42-12-9.42-15-5.42-2.85-11.22-3.24-17.22-3.24H200.79c-1.52,0-3.33.1-3.33,2.19,0,1.71,1.33,2,2.66,2.38s3,0.66,3,2.09V85.16c0,3.8.38,4.38-3.14,5.61-1.24.48-2.28,0.76-2.28,2.28,0,2.09,1.81,2.19,3.42,2.19h13.32c1.52,0,3.43-.09,3.43-2.19,0-1.71-1.43-2-2.85-2.38s-3.33-.66-3.33-2.09v-20Zm0-30.72c0-2.57-.19-4.76,2.47-6.09,2.19-1.14,6.09-1.24,8.56-1.24,4.66,0,9.32.38,13.41,2.95a13.55,13.55,0,0,1,6.28,11.32c0,14.84-18.93,19.12-30.72,18.83V37.89Z"/><path class="cls-2" d="M268.11,122.38a10.69,10.69,0,0,0-.16-1.86,4.54,4.54,0,0,0-.53-1.55,2.72,2.72,0,0,0-1-1.06,3.51,3.51,0,0,0-1.74-.38,4,4,0,0,0-1.77.49,10.57,10.57,0,0,0-2.36,1.83l-2.23,9.9a3,3,0,0,0,1.07,1.86,3.28,3.28,0,0,0,2.29.87,4.56,4.56,0,0,0,2.58-.8,7,7,0,0,0,2.06-2.18,11.84,11.84,0,0,0,1.37-3.26,15.27,15.27,0,0,0,.48-3.87m3.6-.09a12.29,12.29,0,0,1-3,8.07,10.22,10.22,0,0,1-3.28,2.52,8.53,8.53,0,0,1-3.63.82,7,7,0,0,1-2.46-.37,7.3,7.3,0,0,1-1.71-.91l-1,4.57c-0.07.29-.13,0.56-0.16,0.82a4,4,0,0,0-.06.61,0.92,0.92,0,0,0,.34.75,2.14,2.14,0,0,0,.78.4,5.42,5.42,0,0,0,1,.21l1,0.11L259.2,141h-9.62l0.24-1.1,1-.09a5.67,5.67,0,0,0,.93-0.18,1.61,1.61,0,0,0,.86-0.58,2.7,2.7,0,0,0,.46-1.06l3.64-16.07q0.14-.66.26-1.34a6.54,6.54,0,0,0,.12-1.16,2,2,0,0,0-.3-1.31,1.84,1.84,0,0,0-1.32-.33,4.25,4.25,0,0,0-1,.15l-0.86.22,0.2-1.09h0a20.49,20.49,0,0,1,2.39-.92,6.39,6.39,0,0,1,1.82-.32,2.52,2.52,0,0,1,1.85.62,2.92,2.92,0,0,1,.79,1.72h0.14a12,12,0,0,1,2.54-1.82,5.75,5.75,0,0,1,2.7-.72,5,5,0,0,1,4.13,1.81,7.47,7.47,0,0,1,1.47,4.86m-20.26,9a6.59,6.59,0,0,1-1.13.26,7.6,7.6,0,0,1-1.15.12,2.67,2.67,0,0,1-1.86-.64,3.71,3.71,0,0,1-1-1.7q-0.38-1.19-.72-2.36t-0.75-2.84a26.23,26.23,0,0,1,2-3,15.26,15.26,0,0,1,1.82-2.06l1,0.3a4.44,4.44,0,0,0,1.19.18,2.82,2.82,0,0,0,1.58-.48,1.56,1.56,0,0,0,.46-0.49,1.45,1.45,0,0,0,.23-0.59,1.75,1.75,0,0,0,0-.69,1.57,1.57,0,0,0-.47-1,1.83,1.83,0,0,0-1.3-.5,3.73,3.73,0,0,0-1.79.51,7.43,7.43,0,0,0-2,1.89,20.87,20.87,0,0,0-1.71,2.36q-0.53.89-1.36,2.18L244.05,121q-0.09-.43-0.64-2.36a4.14,4.14,0,0,0-1.26-2.26,3.28,3.28,0,0,0-2-.59,5.78,5.78,0,0,0-1.46.36q-1.07.36-2.42,0.92l-0.33,1.16L237,118a4.56,4.56,0,0,1,1.07-.14,2.67,2.67,0,0,1,1.52.4,3.45,3.45,0,0,1,1,1.8c0.23,0.74.48,1.61,0.74,2.6l0.72,2.72a20.22,20.22,0,0,1-2,3,22.81,22.81,0,0,1-1.75,2q-0.58-.17-1.11-0.37a3,3,0,0,0-1.09-.2,2.45,2.45,0,0,0-1.73.58,1.86,1.86,0,0,0-.63,1.41,1.71,1.71,0,0,0,.53,1.33,2,2,0,0,0,1.35.48,3.47,3.47,0,0,0,1.82-.54,8.31,8.31,0,0,0,2-1.83,23.12,23.12,0,0,0,1.74-2.33c0.35-.56.79-1.25,1.33-2q0.21,0.86.42,1.72c0.15,0.58.34,1.29,0.57,2.14a4.08,4.08,0,0,0,1.28,2.3,3.42,3.42,0,0,0,2,.56,7.47,7.47,0,0,0,1.82-.21,18.94,18.94,0,0,0,2.52-.91Zm-43.59-15.64a2.22,2.22,0,0,0-1.4.53,1.82,1.82,0,0,0-.66,1.52,2.63,2.63,0,0,0,.29,1.35,8.21,8.21,0,0,0,.63.92,5.27,5.27,0,0,1,.64,1,3.69,3.69,0,0,1,.29,1.62,10.18,10.18,0,0,1-.59,3.52,11.11,11.11,0,0,1-1.62,3,7.77,7.77,0,0,1-2.17,2,4.71,4.71,0,0,1-2.43.75,7.42,7.42,0,0,1-.95-0.06,2.52,2.52,0,0,1-.94-0.32,2,2,0,0,1-.78-0.82,3.19,3.19,0,0,1-.31-1.52,8,8,0,0,1,.13-1c0.09-.51.17-0.94,0.25-1.29l2.46-10.64-0.21-.26-3,.21-3.09,13.26a7.12,7.12,0,0,1-2.2,1.76,5.13,5.13,0,0,1-2.31.6,2.1,2.1,0,0,1-1.76-.67,3.17,3.17,0,0,1-.52-2,7.59,7.59,0,0,1,.1-1c0.07-.46.16-0.9,0.26-1.33l1.61-6.45a9,9,0,0,0,.21-1.08,7.22,7.22,0,0,0,.07-0.86,2.52,2.52,0,0,0-.65-1.86,2.79,2.79,0,0,0-2-.65,6.05,6.05,0,0,0-1.66.32,20.21,20.21,0,0,0-2.39.93l-0.26,1.12,0.92-.24a4.27,4.27,0,0,1,1-.15,1.92,1.92,0,0,1,1.32.32,1.89,1.89,0,0,1,.32,1.3,7.2,7.2,0,0,1-.1,1.06,13,13,0,0,1-.31,1.43l-1.48,5.52c-0.06.24-.11,0.53-0.16,0.87a5.77,5.77,0,0,0-.08.84,6.44,6.44,0,0,0,.21,1.67,3.92,3.92,0,0,0,.7,1.42,3.84,3.84,0,0,0,1.39,1.08,5.1,5.1,0,0,0,2.19.41,4.71,4.71,0,0,0,1.81-.3,9.91,9.91,0,0,0,1.56-.86,9.13,9.13,0,0,0,1.39-1.08l1.16-1.14a4.38,4.38,0,0,0,1.86,2.5,5.41,5.41,0,0,0,3,.91,7.55,7.55,0,0,0,4.17-1.24,12.19,12.19,0,0,0,3.44-3.51,17.22,17.22,0,0,0,2.15-4.73,19.35,19.35,0,0,0,.78-5.43,4.16,4.16,0,0,0-.58-2.4,1.87,1.87,0,0,0-1.62-.83m-31.2,4.28a4.92,4.92,0,0,0-.12-1.1,2.34,2.34,0,0,0-.51-1,2.44,2.44,0,0,0-1-.7,3.94,3.94,0,0,0-1.54-.26,4.28,4.28,0,0,0-2.48.84,8.5,8.5,0,0,0-2.17,2.25,11.79,11.79,0,0,0-1.49,3.21,13,13,0,0,0-.57,3.83,13.18,13.18,0,0,0,.12,1.89,4.8,4.8,0,0,0,.47,1.5,2.44,2.44,0,0,0,1,1,3.11,3.11,0,0,0,1.59.37,4.48,4.48,0,0,0,2-.55,9.82,9.82,0,0,0,2.41-1.93Zm3.81,11.57a5.7,5.7,0,0,0,.94-0.23l-0.26,1.12q-1.57.63-2.34,0.91a5.53,5.53,0,0,1-1.87.28,2.68,2.68,0,0,1-2-.73,2.78,2.78,0,0,1-.8-1.87H174c-0.26.21-.56,0.47-0.91,0.79a8.28,8.28,0,0,1-1.25.92,9,9,0,0,1-1.48.76,4.63,4.63,0,0,1-1.74.32,4.78,4.78,0,0,1-4-1.82,7.79,7.79,0,0,1-1.44-5,11.42,11.42,0,0,1,.8-4.21,12.54,12.54,0,0,1,2.21-3.67,10.61,10.61,0,0,1,3.19-2.51,8.23,8.23,0,0,1,3.8-1,8.35,8.35,0,0,1,2.36.33,6.91,6.91,0,0,1,1.77.75l3.2-.82,0.21,0.26-2.66,11.27c-0.09.36-.19,0.8-0.29,1.32a6.7,6.7,0,0,0-.15,1.14,1.7,1.7,0,0,0,.42,1.34,2.23,2.23,0,0,0,1.41.35,6.23,6.23,0,0,0,.94-0.1m-22.33-4,4.88-21-0.18-.26-6.49.38-0.25,1.07,1.14,0.12a3.07,3.07,0,0,1,.93.21,1.32,1.32,0,0,1,.6.52,1.86,1.86,0,0,1,.21,1,2.71,2.71,0,0,1,0,.52c0,0.14-.08.39-0.17,0.75l-4.25,18.39c-0.09.44-.16,0.81-0.22,1.1a4.93,4.93,0,0,0-.08.84,2.43,2.43,0,0,0,.72,1.79,2.87,2.87,0,0,0,2.12.73,6.48,6.48,0,0,0,1.91-.26q0.85-.26,2.42-0.89l0.26-1.12a5.35,5.35,0,0,1-1,.21,9.08,9.08,0,0,1-1,.09,2.24,2.24,0,0,1-1.44-.37,1.69,1.69,0,0,1-.44-1.36,5.7,5.7,0,0,1,.14-1.08q0.14-.66.3-1.33m65-2.62q1.22-.17,2.76-0.5a10.23,10.23,0,0,0,2.55-.84,5.27,5.27,0,0,0,2.15-1.92,5.34,5.34,0,0,0,.71-2.8,2.46,2.46,0,0,0-.19-1.07,1.4,1.4,0,0,0-.49-0.58,1.6,1.6,0,0,0-.66-0.26,4.67,4.67,0,0,0-.71-0.05,5,5,0,0,0-3.87,2.3,11.82,11.82,0,0,0-2.24,5.73m9.61,3.44,1,0.73a11,11,0,0,1-3.49,3.4,8.24,8.24,0,0,1-4.34,1.27,6.18,6.18,0,0,1-4.72-1.73,6.87,6.87,0,0,1-1.63-4.91,12.78,12.78,0,0,1,.69-4.2,12.17,12.17,0,0,1,2-3.66,10,10,0,0,1,3.17-2.62,8.68,8.68,0,0,1,4.14-1,5.68,5.68,0,0,1,3.73,1,3.27,3.27,0,0,1,1.21,2.61,4.68,4.68,0,0,1-1.16,3.18,7.86,7.86,0,0,1-3.38,2.11,25.46,25.46,0,0,1-3.28,1c-1.11.24-2.33,0.45-3.67,0.61a7.29,7.29,0,0,0,1,4.21,3.42,3.42,0,0,0,3,1.46,5.5,5.5,0,0,0,3.08-.87,10.66,10.66,0,0,0,2.63-2.6m91-11.47a3.6,3.6,0,0,1,.7.05,3.07,3.07,0,0,1,.6.19c0.14,0.35.27,0.7,0.38,1.06a5,5,0,0,0,.45,1,2.25,2.25,0,0,0,.7.75,1.9,1.9,0,0,0,1.06.28,1.56,1.56,0,0,0,1.27-.59,2,2,0,0,0,.48-1.3,1.88,1.88,0,0,0-.58-1.42,3.68,3.68,0,0,0-1.39-.83,7.62,7.62,0,0,0-1.73-.38c-0.52,0-1-.07-1.47-0.07a7.51,7.51,0,0,0-4.91,1.64,4.87,4.87,0,0,0-2,3.87,4,4,0,0,0,.38,1.82,4.37,4.37,0,0,0,1,1.33,5.76,5.76,0,0,0,1.39.92,11.53,11.53,0,0,0,1.52.64,9.06,9.06,0,0,1,2.71,1.3,2.28,2.28,0,0,1,.91,1.9,3.39,3.39,0,0,1-1,2.55,3.93,3.93,0,0,1-2.85.95,2.85,2.85,0,0,1-1.34-.25,2.67,2.67,0,0,1-.72-0.55c-0.09-.27-0.2-0.61-0.34-1a5.7,5.7,0,0,0-.46-1.08,2.47,2.47,0,0,0-.67-0.76,1.82,1.82,0,0,0-1.13-.32,1.55,1.55,0,0,0-1.24.61,2,2,0,0,0-.51,1.31,2.72,2.72,0,0,0,1.72,2.4,9.06,9.06,0,0,0,4.3.92,7.87,7.87,0,0,0,5.15-1.67,5.33,5.33,0,0,0,2-4.33,3.76,3.76,0,0,0-1.07-2.73,9.15,9.15,0,0,0-3.45-2,10,10,0,0,1-2.63-1.29,2.2,2.2,0,0,1-.79-1.84,3,3,0,0,1,.88-2.18,3.42,3.42,0,0,1,2.59-.92m-184.21,2.87a3.57,3.57,0,0,0-.15-1,2.34,2.34,0,0,0-.55-1,2.68,2.68,0,0,0-1-.66,4,4,0,0,0-1.52-.25,4.44,4.44,0,0,0-2.54.81,8.22,8.22,0,0,0-2.15,2.23,11.71,11.71,0,0,0-1.45,3.22,13.31,13.31,0,0,0-.56,3.79,11.11,11.11,0,0,0,.15,1.9,4.69,4.69,0,0,0,.51,1.51,2.69,2.69,0,0,0,1,1,3,3,0,0,0,1.56.36,4.74,4.74,0,0,0,2.42-.71,11.08,11.08,0,0,0,2.29-1.81Zm3.91-3.84,0.21,0.26-2.93,13.76a23.65,23.65,0,0,1-1.7,5.28,11.26,11.26,0,0,1-2.4,3.41,8.35,8.35,0,0,1-3.08,1.84,12.29,12.29,0,0,1-3.81.55,10.07,10.07,0,0,1-2.36-.23,4.34,4.34,0,0,1-1.44-.59,1.88,1.88,0,0,1-.71-0.83,2.39,2.39,0,0,1-.18-0.88,1.9,1.9,0,0,1,.47-1.32,1.63,1.63,0,0,1,1.29-.53,1.68,1.68,0,0,1,1.1.38,3.64,3.64,0,0,1,.73.81,8,8,0,0,1,.58,1.08l0.42,0.94h0.52a5.61,5.61,0,0,0,2.06-.44,5.49,5.49,0,0,0,2-1.41,11,11,0,0,0,1.73-2.72,17.54,17.54,0,0,0,1.27-4.37l-0.12,0-1,.79a11.62,11.62,0,0,1-3,1.66,5.35,5.35,0,0,1-1.82.3,4.62,4.62,0,0,1-3.9-1.79,8,8,0,0,1-1.37-4.94,11.47,11.47,0,0,1,.79-4.21,12.29,12.29,0,0,1,2.17-3.63,10.29,10.29,0,0,1,3.18-2.47,8.63,8.63,0,0,1,6.25-.61,6.92,6.92,0,0,1,1.8.76Zm135.4,8.51a10.15,10.15,0,0,0,2.55-.84,5.25,5.25,0,0,0,2.16-1.92,5.34,5.34,0,0,0,.71-2.8,2.46,2.46,0,0,0-.19-1.07,1.4,1.4,0,0,0-.49-0.58,1.61,1.61,0,0,0-.66-0.26,4.66,4.66,0,0,0-.72-0.05,5,5,0,0,0-3.86,2.3,11.84,11.84,0,0,0-2.24,5.73q1.22-.17,2.76-0.5m0.8,1.12q-1.66.37-3.67,0.61a7.29,7.29,0,0,0,1,4.21,3.42,3.42,0,0,0,3,1.46,5.5,5.5,0,0,0,3.08-.87,10.66,10.66,0,0,0,2.63-2.6l1,0.73a11,11,0,0,1-3.49,3.4,8.25,8.25,0,0,1-4.35,1.27,6.17,6.17,0,0,1-4.72-1.73,6.87,6.87,0,0,1-1.63-4.91,12.73,12.73,0,0,1,.69-4.2,12.17,12.17,0,0,1,2-3.66,10,10,0,0,1,3.17-2.62,8.67,8.67,0,0,1,4.14-1,5.69,5.69,0,0,1,3.73,1,3.27,3.27,0,0,1,1.21,2.61,4.69,4.69,0,0,1-1.16,3.18,7.86,7.86,0,0,1-3.38,2.11,25.56,25.56,0,0,1-3.28,1m23.7-9.28a2.11,2.11,0,0,0-.89-0.47,4.25,4.25,0,0,0-1.08-.14,4,4,0,0,0-2.24.72,35.66,35.66,0,0,0-3.15,2.52h-0.11a3.67,3.67,0,0,0-.59-2.28,2.37,2.37,0,0,0-2-.76,6.74,6.74,0,0,0-1.8.3,18.12,18.12,0,0,0-2.41.91l-0.26,1.12,0.92-.22a4.65,4.65,0,0,1,1-.13,1.91,1.91,0,0,1,1.33.33,1.89,1.89,0,0,1,.33,1.31,7.19,7.19,0,0,1-.17,1.24c-0.11.56-.2,1-0.25,1.26l-2.55,11.32h3.25l2.81-12.51a13.67,13.67,0,0,1,1.84-1.77,9.56,9.56,0,0,1,1.54-1,6,6,0,0,1,1.16-.44,3.39,3.39,0,0,1,.69-0.11c-0.19.44-.37,0.89-0.54,1.34a3.38,3.38,0,0,0-.26,1.21,1.44,1.44,0,0,0,.47,1,1.91,1.91,0,0,0,1.41.47,1.94,1.94,0,0,0,1.07-.25,2.62,2.62,0,0,0,.69-0.73,2.93,2.93,0,0,0,.4-1,4.61,4.61,0,0,0,.14-1.07,4,4,0,0,0-.18-1.39,2.28,2.28,0,0,0-.57-0.84m7.76,15.36a2.59,2.59,0,0,1-1.74-.45,1.84,1.84,0,0,1-.48-1.41,6.49,6.49,0,0,1,.11-1.05c0.07-.41.16-0.84,0.26-1.28l2.25-9.62h4.82l0.36-1.59h-4.86l1.18-5.11h-3.14l-1.22,5.11H305.5l-0.37,1.59h3.12l-2.72,11.66c-0.06.3-.1,0.57-0.14,0.81a5.1,5.1,0,0,0-.05.76,2.42,2.42,0,0,0,.77,1.93,3.63,3.63,0,0,0,2.42.67,8.55,8.55,0,0,0,2.55-.34q1.08-.34,2.3-0.81l0.3-1.27a6,6,0,0,1-1.27.29,9.9,9.9,0,0,1-1.27.11m-188.49,0a2.26,2.26,0,0,1-1.43-.36,1.69,1.69,0,0,1-.44-1.35,6,6,0,0,1,.15-1.13c0.1-.48.2-0.91,0.3-1.29l1.47-5.61a13.24,13.24,0,0,0,.4-2.71,3.5,3.5,0,0,0-.94-2.54,3.46,3.46,0,0,0-2.61-1,6.62,6.62,0,0,0-3.16.74,22.19,22.19,0,0,0-3.3,2.28H113a3.41,3.41,0,0,0-.63-2.08,2.39,2.39,0,0,0-2-.75,6.79,6.79,0,0,0-1.81.3,18.23,18.23,0,0,0-2.42.91l-0.26,1.12,0.93-.22a4.68,4.68,0,0,1,1-.13,1.94,1.94,0,0,1,1.33.33,1.9,1.9,0,0,1,.33,1.31,6.49,6.49,0,0,1-.17,1.28L109,121.93l-2.62,11.32h3.26l3-12.82a8.76,8.76,0,0,1,2.47-2,5.14,5.14,0,0,1,2.37-.7,2,2,0,0,1,1.64.68,2.85,2.85,0,0,1,.56,1.85,5.65,5.65,0,0,1-.12,1q-0.11.61-.31,1.36l-1.72,6.52a10.68,10.68,0,0,0-.23,1.09,5.8,5.8,0,0,0-.07.85,2.47,2.47,0,0,0,.7,1.79,2.8,2.8,0,0,0,2.1.73,5.61,5.61,0,0,0,1.77-.29c0.58-.19,1.4-0.5,2.45-0.92l0.26-1.12a6,6,0,0,1-1,.24,5.86,5.86,0,0,1-1,.11M74.8,121.83a6.44,6.44,0,0,0-.88-3.72,2.93,2.93,0,0,0-2.54-1.24,4.69,4.69,0,0,0-2.73.89,7,7,0,0,0-2.21,2.9,13.53,13.53,0,0,0-1,3.38,19.6,19.6,0,0,0-.33,3.43,6.8,6.8,0,0,0,.86,3.78,2.93,2.93,0,0,0,2.61,1.28,4.24,4.24,0,0,0,2.76-1,7.43,7.43,0,0,0,2-2.48,13.72,13.72,0,0,0,1.15-3.37,18.8,18.8,0,0,0,.4-3.89m1.81-4.3a7,7,0,0,1,1.75,5,12.78,12.78,0,0,1-.7,4.12,10.92,10.92,0,0,1-2,3.62,10.3,10.3,0,0,1-3.24,2.58,9.5,9.5,0,0,1-4.39,1,6.25,6.25,0,0,1-4.71-1.87,6.94,6.94,0,0,1-1.81-5A12.07,12.07,0,0,1,64.33,119a9.91,9.91,0,0,1,3.24-2.46,9.48,9.48,0,0,1,4.18-.94,6.29,6.29,0,0,1,4.86,1.9m-32,4.3a6.44,6.44,0,0,0-.88-3.72,2.92,2.92,0,0,0-2.54-1.24,4.69,4.69,0,0,0-2.73.89,7,7,0,0,0-2.21,2.9,13.45,13.45,0,0,0-1,3.38,19.6,19.6,0,0,0-.33,3.43,6.8,6.8,0,0,0,.86,3.78,2.93,2.93,0,0,0,2.61,1.28,4.24,4.24,0,0,0,2.76-1,7.37,7.37,0,0,0,2-2.48,13.64,13.64,0,0,0,1.15-3.37,18.66,18.66,0,0,0,.4-3.89m1.81-4.3a7,7,0,0,1,1.75,5,12.78,12.78,0,0,1-.7,4.12,10.88,10.88,0,0,1-2,3.62,10.32,10.32,0,0,1-3.24,2.58,9.52,9.52,0,0,1-4.39,1,6.25,6.25,0,0,1-4.7-1.87,6.93,6.93,0,0,1-1.81-5A12.07,12.07,0,0,1,34.15,119a9.92,9.92,0,0,1,3.24-2.46,9.46,9.46,0,0,1,4.18-.94,6.28,6.28,0,0,1,4.86,1.9M27.92,131.58a2.21,2.21,0,0,1-1.42-.36,1.74,1.74,0,0,1-.42-1.35,6.44,6.44,0,0,1,.14-1.13c0.09-.48.19-0.91,0.3-1.29L28,121.84a11,11,0,0,0,.3-1.59,10.76,10.76,0,0,0,.1-1.12,3.6,3.6,0,0,0-.9-2.54,3.31,3.31,0,0,0-2.56-1,6.87,6.87,0,0,0-3.38.81,22,22,0,0,0-3.31,2.36H18.18a3.41,3.41,0,0,0-1.09-2.26,3.54,3.54,0,0,0-2.52-.9,6.67,6.67,0,0,0-3.15.7A23.86,23.86,0,0,0,8,118.65H7.92a3.46,3.46,0,0,0-.62-2.07,2.37,2.37,0,0,0-2-.76,6.75,6.75,0,0,0-1.81.3,18.28,18.28,0,0,0-2.42.91l-0.26,1.13,0.94-.24a4.47,4.47,0,0,1,1-.15,1.9,1.9,0,0,1,1.3.32,1.92,1.92,0,0,1,.33,1.34,6.73,6.73,0,0,1-.13,1.19q-0.13.7-.27,1.31L1.36,133.25H4.62l3-12.82a8.61,8.61,0,0,1,2.77-2.23,5.71,5.71,0,0,1,2.18-.5,2.08,2.08,0,0,1,1.66.65,2.62,2.62,0,0,1,.57,1.78,3.81,3.81,0,0,1-.08.64c-0.05.29-.11,0.56-0.16,0.81l-2.75,11.67H15l3.06-12.94a9.37,9.37,0,0,1,2.52-2.05,5.11,5.11,0,0,1,2.28-.55,1.86,1.86,0,0,1,1.6.68,3.05,3.05,0,0,1,.5,1.85,5.82,5.82,0,0,1-.11,1c-0.08.41-.18,0.86-0.31,1.36l-1.73,6.52c-0.1.42-.18,0.78-0.23,1.09a5.55,5.55,0,0,0-.07.85,2.48,2.48,0,0,0,.7,1.79,2.8,2.8,0,0,0,2.1.73,6.59,6.59,0,0,0,1.65-.25,23.25,23.25,0,0,0,2.58-.9l0.26-1.12a4.76,4.76,0,0,1-1,.21,7.31,7.31,0,0,1-1,.09m28.61,0a2.58,2.58,0,0,1-1.74-.45,1.83,1.83,0,0,1-.48-1.41,6.49,6.49,0,0,1,.11-1.05c0.07-.41.16-0.84,0.26-1.28l2.25-9.62h4.82l0.36-1.59H57.25l1.18-5.11H55.29l-1.22,5.11H50.89l-0.37,1.59h3.12l-2.72,11.66q-0.09.45-.14,0.81a5.1,5.1,0,0,0-.05.76,2.42,2.42,0,0,0,.77,1.93,3.64,3.64,0,0,0,2.43.67,8.55,8.55,0,0,0,2.55-.34q1.08-.34,2.3-0.81l0.3-1.27a6,6,0,0,1-1.27.29,9.9,9.9,0,0,1-1.27.11m38.19-15.36a2.1,2.1,0,0,0-.89-0.47,4.24,4.24,0,0,0-1.08-.14,4,4,0,0,0-2.24.72,36,36,0,0,0-3.15,2.52H87.24a3.66,3.66,0,0,0-.59-2.28,2.37,2.37,0,0,0-2-.76,6.73,6.73,0,0,0-1.8.3,18,18,0,0,0-2.41.91l-0.26,1.12,0.92-.22a4.67,4.67,0,0,1,1-.13,1.92,1.92,0,0,1,1.33.33,1.9,1.9,0,0,1,.33,1.31,7,7,0,0,1-.17,1.24c-0.11.56-.2,1-0.25,1.26l-2.55,11.32H84l2.81-12.51A13.67,13.67,0,0,1,88.69,119a9.48,9.48,0,0,1,1.54-1,6,6,0,0,1,1.16-.44,3.43,3.43,0,0,1,.69-0.11c-0.19.44-.37,0.89-0.54,1.34a3.38,3.38,0,0,0-.26,1.21,1.45,1.45,0,0,0,.47,1,1.91,1.91,0,0,0,1.41.47,1.94,1.94,0,0,0,1.07-.25,2.62,2.62,0,0,0,.69-0.73,2.93,2.93,0,0,0,.4-1,4.71,4.71,0,0,0,.14-1.07,4.08,4.08,0,0,0-.18-1.39,2.28,2.28,0,0,0-.57-0.84m8.13,15.41a2.24,2.24,0,0,1-1.44-.37,1.71,1.71,0,0,1-.44-1.36,5.64,5.64,0,0,1,.13-1.07q0.13-.65.3-1.34l1.86-7.42a9.38,9.38,0,0,0,.21-1.08,7.22,7.22,0,0,0,.07-0.86,2.55,2.55,0,0,0-.65-1.83,2.76,2.76,0,0,0-2.08-.68,6.91,6.91,0,0,0-1.71.3,17.06,17.06,0,0,0-2.44.91l-0.26,1.12c0.22-.06.54-0.13,1-0.21a5.6,5.6,0,0,1,1-.12,1.3,1.3,0,0,1,1.64,1.62,6.25,6.25,0,0,1-.13,1.19c-0.09.47-.17,0.9-0.27,1.31l-1.84,7.42c-0.1.44-.18,0.81-0.23,1.1a5.38,5.38,0,0,0-.07.84,2.48,2.48,0,0,0,.7,1.79,2.78,2.78,0,0,0,2.09.73,6.63,6.63,0,0,0,1.64-.25,23,23,0,0,0,2.57-.9l0.26-1.12a4.81,4.81,0,0,1-.95.21,7.35,7.35,0,0,1-.95.09m2.51-24.18A2.21,2.21,0,0,1,106,109a2.56,2.56,0,0,1-.64,1.74,2,2,0,0,1-1.61.74,2,2,0,0,1-1.54-.71,2.32,2.32,0,0,1-.65-1.61,2.42,2.42,0,0,1,.65-1.67,2,2,0,0,1,1.54-.72,2.11,2.11,0,0,1,1.62.67"/></svg>