<svg id="Layer_1" data-name="Layer 1" xmlns="http://www.w3.org/2000/svg" viewBox="0 0 199.14 99.5"><defs><style>.cls-1{fill:#fff;}</style></defs><title>lg-half-icon-white</title><path class="cls-1" d="M199,99.5c0-1,.1-1.91.1-2.87a99.2,99.2,0,0,0-3.3-25.43L150.67,89.5c-8.42,4.87-19.35,1.71-24.42-7.06s-2.32-19.8,6.09-24.67l38.84-30.28a99.54,99.54,0,0,0-45.5-27L119,48.8h0c0,9.73-8.2,17.62-18.33,17.62s-18.3-7.88-18.3-17.62h0L75.5,0A99.52,99.52,0,0,0,29.42,26l38.43,30c8.43,4.86,11.16,15.91,6.1,24.68s-16,11.91-24.42,7L3.86,69.16A100.17,100.17,0,0,0,0,96.63c0,1,.07,1.92.09,2.87H199Z"/></svg>