<svg id="Layer_1" data-name="Layer 1" xmlns="http://www.w3.org/2000/svg" viewBox="0 0 1200 1164.47"><defs><style>.cls-1{fill:#a1a5a7;opacity:0.2;}</style></defs><title>lg-full-icon</title><path class="cls-1" d="M483.11,870.43c0-58.66,49.48-106.22,110.47-106.16s110.32,47.49,110.32,106.16l41.08,294A599.59,599.59,0,0,0,1022.67,1008L791.11,827.53c-50.8-29.33-67.26-95.9-36.73-148.72s96.35-71.8,147.07-42.5l275.22,111.45A599.54,599.54,0,0,0,1180.12,429L907.93,539.34c-50.74,29.33-116.61,10.34-147.15-42.52s-14-119.36,36.73-148.65l234-182.49A599.49,599.49,0,0,0,757.34,3.28l-40.5,290.79v0c0,58.64-49.43,106.16-110.47,106.16S496.06,352.76,496.06,294.12v0L454.93,0A599.7,599.7,0,0,0,177.27,156.46L408.84,337c50.79,29.28,67.26,95.87,36.73,148.72s-96.35,71.78-147.17,42.42L23.27,416.73a601.6,601.6,0,0,0-3.49,318.7L291.92,625.16c50.89-29.3,116.71-10.35,147.3,42.55C469.7,720.45,453.15,787,402.44,816.32l-234,182.53a599.21,599.21,0,0,0,274.19,162.4Z"/></svg>