<svg id="Layer_1" data-name="Layer 1" xmlns="http://www.w3.org/2000/svg" xmlns:xlink="http://www.w3.org/1999/xlink" viewBox="0 0 1110.89 1078"><defs><style>.cls-1{fill:none;}.cls-2{clip-path:url(#clip-path);}.cls-3{fill:#fff;opacity:0.1;}</style><clipPath id="clip-path"><rect class="cls-1" width="1110.89" height="539.02"/></clipPath></defs><title>lg-half-icon</title><g class="cls-2"><path class="cls-3" d="M447.23,805.79c0-54.31,45.81-98.33,102.27-98.27s102.13,44,102.13,98.27l38,272.21A555.08,555.08,0,0,0,946.73,933.16L732.36,766.08c-47-27.15-62.27-88.77-34-137.67s89.2-66.47,136.15-39.34L1089.3,692.24a555,555,0,0,0,3.18-295.05l-252,102.1c-47,27.16-108,9.57-136.22-39.37s-13-110.5,34-137.61L954.92,153.37A555,555,0,0,0,701.1,3l-37.49,269.2v0c0,54.28-45.76,98.27-102.27,98.27s-102.13-44-102.13-98.27v0L421.14,0a555.16,555.16,0,0,0-257,144.84L378.48,312c47,27.11,62.26,88.76,34,137.67s-89.2,66.45-136.24,39.27L21.54,385.78a556.94,556.94,0,0,0-3.23,295L270.24,578.73c47.12-27.13,108-9.58,136.36,39.39s12.9,110.45-34,137.58l-216.64,169A554.71,554.71,0,0,0,409.74,1075Z"/></g></svg>