<svg id="Layer_1" data-name="Layer 1" xmlns="http://www.w3.org/2000/svg" viewBox="0 0 1110.89 539"><defs><style>.cls-1{fill:#fff;opacity:0.1;}</style></defs><title>lg-half-icon</title><path class="cls-1" d="M276.23,488.94L21.54,385.78A558.7,558.7,0,0,0,0,539H1110.89a553.45,553.45,0,0,0-18.41-141.81l-252,102.1c-47,27.16-108,9.57-136.22-39.37s-13-110.5,34-137.61L954.92,153.37A555.22,555.22,0,0,0,701,3l-37.58,269.2v0c0,54.28-45.56,98.27-102.07,98.27s-101.93-44-101.93-98.27v0L421.26,0A555.34,555.34,0,0,0,164.17,144.84L378.51,312c47,27.11,62.25,88.76,34,137.67S323.28,516.11,276.23,488.94Z" transform="translate(0 0)"/></svg>