<svg id="Layer_1" data-name="Layer 1" xmlns="http://www.w3.org/2000/svg" viewBox="0 0 641.3 251.24"><defs><style>.cls-1{fill:#eb5777;}.cls-2{fill:#4c565c;}.cls-3{fill:#a1a5a7;}</style></defs><title>masthead-logo</title><path class="cls-1" d="M593.48,61.73a7.37,7.37,0,0,1,14.73,0l2.74,19.62A40,40,0,0,0,629.47,70.9L614,58.87a7.37,7.37,0,0,1,7.36-12.76l18.36,7.44A40,40,0,0,0,640,32.28l-18.16,7.36a7.37,7.37,0,0,1-7.36-12.75l15.61-12.17A40,40,0,0,0,611.78,3.88l-2.7,19.4h0a7.37,7.37,0,0,1-14.73,0h0L591.6,3.66A40,40,0,0,0,573.08,14.1l15.45,12a7.37,7.37,0,0,1-7.37,12.75l-18.35-7.43a40.11,40.11,0,0,0-.23,21.26l18.15-7.35a7.37,7.37,0,0,1,7.37,12.75L572.49,70.29a40,40,0,0,0,18.29,10.83Z" transform="translate(0 -3.66)"/><path class="cls-2" d="M348.37,133.35c0,24.23-18.81,42.53-42.87,42.53A41.66,41.66,0,0,1,264,134c0-22.88,19.49-42,42.37-42s42,18.3,42,41.34m-20.68,23.22c5.09-6.61,7.12-15.08,7.12-23.38,0-17.45-10-32.87-28.81-32.87-19.66,0-28.47,16.94-28.47,34.4,0,17.28,9.32,32.87,28.13,32.87a27.6,27.6,0,0,0,22-11m-85.56-55.24h13.72c3.22,0,7.28.17,7.28-4.24,0-4.74-4.24-3.9-8-3.9h-13V68.28c0-2.37,0-6.44-3.56-6.44-4.4,0-4.57,6.78-4.91,9.83-0.34,4.23-2.2,13.56-3.73,17.28-1.69,4.24-5.08,4.24-8.47,4.24-2.54,0-5.59.51-5.59,3.22,0,5.93,5.08,4.91,13.56,4.91V165.2c0,4.74.34,8.13,5.93,8.13h22.88c2.54,0,5.25-1.36,5.25-4.24,0-5.59-7.45-4.06-10.84-4.06-9.83,0-10.51-4.57-10.51-13V101.32Zm-24.06,32c0,24.23-18.81,42.53-42.87,42.53A41.66,41.66,0,0,1,133.69,134c0-22.88,19.49-42,42.36-42s42,18.3,42,41.34M197.4,156.56c5.08-6.61,7.12-15.08,7.12-23.38,0-17.45-10-32.87-28.81-32.87-19.66,0-28.47,16.94-28.47,34.4,0,17.28,9.32,32.87,28.13,32.87a27.61,27.61,0,0,0,22-11M84.73,95.39l16.43-39c1.19-3.22,2.38-7.12,6.27-7.12h21.86c2.88,0,4.75.34,4.75,4.24,0,2.54-2.54,3.22-4.58,3.73-5.76,1.53-6.95,2.54-6.95,8.81v95.23c0,2.71,3.9,3.22,6.27,3.9,2.54,0.68,5.08,1,5.08,4.24,0,3.73-3.22,3.9-6.1,3.9H104.89c-2.71,0-5.93-.34-5.93-3.9,0-2.71,1.69-3.22,3.9-4.07,6.1-2.37,4.75-3,4.75-10V66.58L83.2,123.52,70.49,149.78c-1,2-3.39,7.45-6.27,7.45-2.71,0-4.07-3-5.08-5.08L41,113.35l-16.61-41L21,63.87v96.75c0.51,3.05,3.56,3.56,6.27,4.58,2.54,0.85,5.42,1.52,5.42,4.74,0,2.54-2.37,3.39-4.58,3.39H7.8c-3.05,0-6.1,0-6.1-3.73,0-2.71,1.86-3.39,4.07-4.24,5.25-2,5.25-2.88,5.25-8.47V63.36C11,53.37,0,59,0,53c0-2.71,2-3.73,4.57-3.73H27.11c4.24-.17,5.59,5.93,6.95,9l31.86,76.08Z" transform="translate(0 -3.66)"/><path class="cls-3" d="M545.42,92c-22.88,0-42.36,19.15-42.36,42a41.66,41.66,0,0,0,41.51,41.85c24.06,0,42.87-18.3,42.87-42.53,0-23-19.15-41.34-42-41.34m-0.68,75.57c-18.81,0-28.13-15.59-28.13-32.87,0-17.46,8.81-34.4,28.47-34.4,18.81,0,28.81,15.42,28.81,32.87,0,8.3-2,16.78-7.12,23.38a27.61,27.61,0,0,1-22,11m-71.5-34.06a32.75,32.75,0,0,1,4.91-18c2.37-4.07,7.28-10.51,12.37-10.51,3.39,0,7.46,3.56,10.34,3.56,3,0,3.9-3.9,3.9-6.27,0-6.27-3.05-10.34-9.66-10.34-9.49,0-19.32,13.22-22.71,21.35-0.68-4.91-2.54-21.35-9.15-21.35-2.37,0-7.62,3.73-9.49,5.08s-4.41,3.22-4.41,5.76c0,2.2,2.38,2.88,3.9,3.56a13.4,13.4,0,0,1,7.29,12.37v40.67c0,5.42-4.24,5.93-5.76,6.44-1.53.68-2.88,1.53-2.88,3.39,0,3.9,3,4.07,5.76,4.07h18.13c2.88,0,5.59-.34,5.59-4.07,0-2-1.36-2.71-3-3.56-1.53-.51-5.08-1.19-5.08-6.27V133.51Zm-96.07-7.63c15.42-.17,31.85-1.52,45.92-8.47,13.72-6.78,26.1-19.15,26.1-35.59,0-12-6.1-21.35-16.78-26.77-9.66-5.08-20-5.76-30.67-5.76H357.68c-2.71,0-5.93.17-5.93,3.9,0,3.05,2.37,3.56,4.75,4.24,2.2,0.68,5.42,1.19,5.42,3.73v94.21c0,6.78.68,7.8-5.59,10-2.21.85-4.07,1.35-4.07,4.07,0,3.73,3.22,3.9,6.1,3.9h23.72c2.71,0,6.1-.17,6.1-3.9,0-3.05-2.55-3.56-5.09-4.24-2.37-.51-5.93-1.19-5.93-3.73V125.89Zm0-54.73c0-4.58-.34-8.47,4.41-10.84,3.9-2,10.84-2.2,15.25-2.2,8.3,0,16.61.68,23.89,5.25A24.13,24.13,0,0,1,431.9,83.53c0,26.43-33.72,34.06-54.73,33.55V71.16Z" transform="translate(0 -3.66)"/><path class="cls-1" d="M478.12,221.71a19.06,19.06,0,0,0-.29-3.32,8,8,0,0,0-1-2.75,4.84,4.84,0,0,0-1.87-1.89,6.28,6.28,0,0,0-3.11-.67,7.08,7.08,0,0,0-3.16.88,19,19,0,0,0-4.22,3.27l-4,17.66a5.38,5.38,0,0,0,1.91,3.32,5.86,5.86,0,0,0,4.09,1.54,8.12,8.12,0,0,0,4.6-1.44,12.45,12.45,0,0,0,3.67-3.89,21.1,21.1,0,0,0,2.44-5.81,27.23,27.23,0,0,0,.85-6.9m6.41-.16a21.89,21.89,0,0,1-5.35,14.39,18.22,18.22,0,0,1-5.86,4.49,15.26,15.26,0,0,1-6.48,1.46,12.4,12.4,0,0,1-4.38-.66,13,13,0,0,1-3-1.62l-1.82,8.16c-0.12.52-.22,1-0.29,1.46a7.2,7.2,0,0,0-.11,1.09,1.64,1.64,0,0,0,.61,1.34,3.74,3.74,0,0,0,1.38.72,9.7,9.7,0,0,0,1.74.37c0.65,0.08,1.22.15,1.75,0.19l-0.44,2H445.07l0.44-2c0.66,0,1.29-.09,1.86-0.16a10.05,10.05,0,0,0,1.65-.31,2.88,2.88,0,0,0,1.54-1,4.84,4.84,0,0,0,.83-1.88l6.5-28.65c0.17-.79.32-1.58,0.47-2.39a11.68,11.68,0,0,0,.22-2.07,3.59,3.59,0,0,0-.54-2.34,3.29,3.29,0,0,0-2.35-.59,7.43,7.43,0,0,0-1.74.27l-1.54.39,0.36-1.94v0a37.36,37.36,0,0,1,4.26-1.64,11.53,11.53,0,0,1,3.24-.57,4.51,4.51,0,0,1,3.3,1.1,5.23,5.23,0,0,1,1.41,3.07h0.25a21.36,21.36,0,0,1,4.53-3.24,10.2,10.2,0,0,1,4.81-1.28,9,9,0,0,1,7.36,3.23q2.63,3.23,2.63,8.67m-36.13,16a11.91,11.91,0,0,1-2,.47,13.37,13.37,0,0,1-2.05.21,4.75,4.75,0,0,1-3.32-1.13,6.62,6.62,0,0,1-1.85-3q-0.68-2.11-1.28-4.22t-1.34-5.06a46.84,46.84,0,0,1,3.5-5.36,26.8,26.8,0,0,1,3.25-3.67c0.46,0.14,1.08.33,1.87,0.54a8,8,0,0,0,2.11.33,5,5,0,0,0,2.82-.85,2.76,2.76,0,0,0,.82-0.87,2.61,2.61,0,0,0,.41-1,3.1,3.1,0,0,0,0-1.24,2.79,2.79,0,0,0-.84-1.79,3.25,3.25,0,0,0-2.31-.89,6.61,6.61,0,0,0-3.19.92,13.27,13.27,0,0,0-3.63,3.38,37.93,37.93,0,0,0-3,4.2c-0.62,1.06-1.43,2.36-2.43,3.89l-0.67-3c-0.11-.51-0.49-1.91-1.13-4.22a7.41,7.41,0,0,0-2.26-4,5.85,5.85,0,0,0-3.56-1,10.24,10.24,0,0,0-2.6.64q-1.92.64-4.31,1.64l-0.59,2.07q0.87-.25,1.88-0.5a8.1,8.1,0,0,1,1.91-.25,4.76,4.76,0,0,1,2.71.71,6.11,6.11,0,0,1,1.87,3.21q0.62,2,1.32,4.64l1.28,4.85a35.49,35.49,0,0,1-3.62,5.38,40.69,40.69,0,0,1-3.13,3.49c-0.69-.21-1.34-0.43-2-0.67a5.45,5.45,0,0,0-1.94-.36,4.35,4.35,0,0,0-3.08,1,3.31,3.31,0,0,0-1.12,2.51,3.05,3.05,0,0,0,.95,2.38,3.47,3.47,0,0,0,2.41.86,6.17,6.17,0,0,0,3.24-1,14.81,14.81,0,0,0,3.49-3.27,41.56,41.56,0,0,0,3.11-4.16q0.93-1.51,2.37-3.66,0.37,1.52.76,3.06c0.26,1,.6,2.3,1,3.81,0.58,2.08,1.34,3.44,2.29,4.11a6.09,6.09,0,0,0,3.59,1,13.38,13.38,0,0,0,3.25-.37,34.34,34.34,0,0,0,4.49-1.63Zm-77.74-27.89a3.94,3.94,0,0,0-2.49.94A3.25,3.25,0,0,0,367,213.3a4.69,4.69,0,0,0,.52,2.41,14.7,14.7,0,0,0,1.13,1.64,9.25,9.25,0,0,1,1.14,1.76,6.51,6.51,0,0,1,.51,2.88,18.23,18.23,0,0,1-1.06,6.28,19.82,19.82,0,0,1-2.9,5.31,13.8,13.8,0,0,1-3.87,3.49,8.41,8.41,0,0,1-4.34,1.34,13.34,13.34,0,0,1-1.68-.11,4.37,4.37,0,0,1-1.68-.58,3.56,3.56,0,0,1-1.39-1.46,5.71,5.71,0,0,1-.54-2.71,14,14,0,0,1,.23-1.7c0.16-.91.3-1.67,0.45-2.29l4.39-19-0.37-.47-5.42.37-5.51,23.64a12.76,12.76,0,0,1-3.93,3.14,9.18,9.18,0,0,1-4.11,1.08,3.75,3.75,0,0,1-3.14-1.2,5.68,5.68,0,0,1-.94-3.54,13.76,13.76,0,0,1,.19-1.81c0.13-.81.28-1.6,0.47-2.37l2.88-11.5a15.58,15.58,0,0,0,.37-1.93,12.21,12.21,0,0,0,.13-1.53,4.5,4.5,0,0,0-1.17-3.32,5,5,0,0,0-3.64-1.17,10.75,10.75,0,0,0-3,.56,36.61,36.61,0,0,0-4.27,1.66l-0.47,2,1.65-.42a7.71,7.71,0,0,1,1.74-.26,3.43,3.43,0,0,1,2.35.58,3.38,3.38,0,0,1,.57,2.32,13.46,13.46,0,0,1-.17,1.9,23.47,23.47,0,0,1-.55,2.56L329,230.74c-0.1.44-.2,1-0.29,1.56a9.94,9.94,0,0,0-.14,1.5,11.53,11.53,0,0,0,.38,3,7,7,0,0,0,1.24,2.54,6.83,6.83,0,0,0,2.47,1.92,9.1,9.1,0,0,0,3.91.73,8.4,8.4,0,0,0,3.22-.53,17.59,17.59,0,0,0,2.78-1.53A16.1,16.1,0,0,0,345,238l2.07-2a7.79,7.79,0,0,0,3.31,4.45,9.65,9.65,0,0,0,5.4,1.63,13.46,13.46,0,0,0,7.44-2.21,21.62,21.62,0,0,0,6.13-6.26,30.62,30.62,0,0,0,3.83-8.44,34.5,34.5,0,0,0,1.4-9.69,7.4,7.4,0,0,0-1-4.28,3.34,3.34,0,0,0-2.88-1.48M315,217.28a8.56,8.56,0,0,0-.22-2,4.12,4.12,0,0,0-.91-1.75,4.32,4.32,0,0,0-1.71-1.25,7,7,0,0,0-2.74-.47,7.64,7.64,0,0,0-4.42,1.5,15.15,15.15,0,0,0-3.86,4,21,21,0,0,0-2.65,5.73,24.09,24.09,0,0,0-.81,10.19,8.61,8.61,0,0,0,.84,2.68,4.33,4.33,0,0,0,1.71,1.84,5.57,5.57,0,0,0,2.83.65,8,8,0,0,0,3.65-1,17.61,17.61,0,0,0,4.3-3.44Zm6.8,20.63a9.73,9.73,0,0,0,1.68-.41l-0.47,2q-2.81,1.12-4.18,1.62a9.91,9.91,0,0,1-3.34.5,4.79,4.79,0,0,1-3.55-1.31,5,5,0,0,1-1.44-3.33h-0.22c-0.46.37-1,.84-1.63,1.42a14.67,14.67,0,0,1-2.22,1.63,16.09,16.09,0,0,1-2.64,1.35,8.27,8.27,0,0,1-3.11.58,8.53,8.53,0,0,1-7.07-3.24q-2.56-3.24-2.56-8.85a20.3,20.3,0,0,1,1.43-7.51,22.35,22.35,0,0,1,3.94-6.54,18.89,18.89,0,0,1,5.69-4.47,14.64,14.64,0,0,1,6.78-1.7,14.89,14.89,0,0,1,4.22.59,12.26,12.26,0,0,1,3.16,1.34l5.71-1.47,0.38,0.47-4.74,20.09c-0.16.64-.34,1.43-0.51,2.35a12.16,12.16,0,0,0-.26,2,3,3,0,0,0,.75,2.4,4,4,0,0,0,2.52.62,10.73,10.73,0,0,0,1.69-.19M282,230.85l8.7-37.47-0.31-.47-11.57.68-0.44,1.9,2,0.22a5.61,5.61,0,0,1,1.66.37,2.37,2.37,0,0,1,1.06.92,3.32,3.32,0,0,1,.37,1.73,5,5,0,0,1-.08.94c-0.05.25-.15,0.69-0.3,1.34l-7.59,32.79c-0.16.79-.29,1.44-0.39,2a8.44,8.44,0,0,0-.14,1.49,4.33,4.33,0,0,0,1.29,3.19,5.11,5.11,0,0,0,3.78,1.29,11.57,11.57,0,0,0,3.41-.47q1.51-.47,4.31-1.59l0.47-2a9.57,9.57,0,0,1-1.85.37,16,16,0,0,1-1.84.16,4,4,0,0,1-2.57-.66,3,3,0,0,1-.79-2.42,10.08,10.08,0,0,1,.25-1.93q0.25-1.18.53-2.36m115.89-4.67q2.18-.31,4.91-0.89a18.17,18.17,0,0,0,4.55-1.5,9.35,9.35,0,0,0,3.84-3.43,9.49,9.49,0,0,0,1.26-5,4.39,4.39,0,0,0-.34-1.91,2.51,2.51,0,0,0-.87-1,2.87,2.87,0,0,0-1.19-.47,8.52,8.52,0,0,0-1.27-.09q-3.74,0-6.89,4.1a21.11,21.11,0,0,0-4,10.22M415,232.31l1.78,1.31a19.54,19.54,0,0,1-6.22,6.06,14.69,14.69,0,0,1-7.75,2.27q-5.51,0-8.42-3.09t-2.91-8.75a22.75,22.75,0,0,1,1.23-7.49,21.62,21.62,0,0,1,3.59-6.53,17.75,17.75,0,0,1,5.65-4.67,15.47,15.47,0,0,1,7.39-1.78q4.49,0,6.65,1.83a5.83,5.83,0,0,1,2.16,4.66,8.35,8.35,0,0,1-2.07,5.68,14.07,14.07,0,0,1-6,3.77,46.05,46.05,0,0,1-5.85,1.72q-3,.65-6.54,1.09,0,4.92,1.82,7.52a6.11,6.11,0,0,0,5.34,2.6,9.8,9.8,0,0,0,5.49-1.56,19.05,19.05,0,0,0,4.69-4.64m162.34-20.45a6.55,6.55,0,0,1,1.25.09,5.22,5.22,0,0,1,1.06.34c0.25,0.62.47,1.25,0.68,1.9a9,9,0,0,0,.81,1.81,4,4,0,0,0,1.24,1.34,3.36,3.36,0,0,0,1.9.5,2.78,2.78,0,0,0,2.26-1,3.58,3.58,0,0,0,.85-2.32,3.36,3.36,0,0,0-1-2.54,6.62,6.62,0,0,0-2.49-1.48,13.72,13.72,0,0,0-3.08-.68c-0.93-.08-1.81-0.13-2.62-0.13a13.39,13.39,0,0,0-8.76,2.92,8.7,8.7,0,0,0-3.56,6.91,7.2,7.2,0,0,0,.68,3.25,7.83,7.83,0,0,0,1.81,2.37,10.27,10.27,0,0,0,2.49,1.64,21.21,21.21,0,0,0,2.71,1.14,16.27,16.27,0,0,1,4.82,2.32,4.07,4.07,0,0,1,1.62,3.38,6.07,6.07,0,0,1-1.73,4.56,7,7,0,0,1-5.09,1.69,5.09,5.09,0,0,1-2.38-.45,4.67,4.67,0,0,1-1.29-1c-0.16-.47-0.37-1.09-0.6-1.84a10.18,10.18,0,0,0-.82-1.93,4.46,4.46,0,0,0-1.2-1.35,3.25,3.25,0,0,0-2-.58,2.77,2.77,0,0,0-2.21,1.09,3.59,3.59,0,0,0-.9,2.33q0,2.64,3.06,4.28a16.18,16.18,0,0,0,7.67,1.64,14,14,0,0,0,9.18-3,9.52,9.52,0,0,0,3.64-7.72,6.72,6.72,0,0,0-1.91-4.86A16.36,16.36,0,0,0,577.3,223a17.89,17.89,0,0,1-4.68-2.29,3.91,3.91,0,0,1-1.41-3.29,5.4,5.4,0,0,1,1.57-3.88,6.1,6.1,0,0,1,4.62-1.64M248.89,217a6.37,6.37,0,0,0-.26-1.79,4.17,4.17,0,0,0-1-1.7,4.81,4.81,0,0,0-1.74-1.19,7.14,7.14,0,0,0-2.7-.44,7.91,7.91,0,0,0-4.52,1.45,14.7,14.7,0,0,0-3.84,4,20.91,20.91,0,0,0-2.58,5.74,23.71,23.71,0,0,0-1,6.76,20.09,20.09,0,0,0,.27,3.38,8.36,8.36,0,0,0,.91,2.7,4.78,4.78,0,0,0,1.73,1.79,5.4,5.4,0,0,0,2.79.64,8.45,8.45,0,0,0,4.32-1.27,19.62,19.62,0,0,0,4.08-3.22Zm7-6.85,0.37,0.47L251,235.13a42,42,0,0,1-3,9.42,20.13,20.13,0,0,1-4.28,6.09,14.89,14.89,0,0,1-5.49,3.28,22,22,0,0,1-6.8,1,18,18,0,0,1-4.22-.4,7.77,7.77,0,0,1-2.57-1.06,3.33,3.33,0,0,1-1.26-1.48,4.21,4.21,0,0,1-.33-1.57,3.4,3.4,0,0,1,.84-2.35,2.91,2.91,0,0,1,2.3-1,3,3,0,0,1,2,.67,6.4,6.4,0,0,1,1.31,1.45,14.25,14.25,0,0,1,1,1.93l0.75,1.68h0.93a9.94,9.94,0,0,0,3.67-.78,9.81,9.81,0,0,0,3.58-2.52,19.67,19.67,0,0,0,3.08-4.84,31.38,31.38,0,0,0,2.27-7.8l-0.22-.06-1.76,1.4a17.27,17.27,0,0,1-2.38,1.59,17.7,17.7,0,0,1-2.89,1.37,9.54,9.54,0,0,1-3.24.53,8.23,8.23,0,0,1-7-3.19q-2.45-3.19-2.44-8.8a20.46,20.46,0,0,1,1.42-7.5,21.82,21.82,0,0,1,3.87-6.48,18.34,18.34,0,0,1,5.66-4.41A15.38,15.38,0,0,1,247,210.23a12.37,12.37,0,0,1,3.21,1.36ZM497.32,225.3a18.07,18.07,0,0,0,4.54-1.5,9.36,9.36,0,0,0,3.85-3.43,9.51,9.51,0,0,0,1.26-5,4.39,4.39,0,0,0-.34-1.91,2.52,2.52,0,0,0-.87-1,2.86,2.86,0,0,0-1.19-.47,8.55,8.55,0,0,0-1.28-.09q-3.74,0-6.89,4.1a21.11,21.11,0,0,0-4,10.22q2.18-.31,4.92-0.89m1.43,2q-3,.65-6.54,1.09,0,4.92,1.82,7.52a6.1,6.1,0,0,0,5.34,2.6,9.81,9.81,0,0,0,5.49-1.56,19,19,0,0,0,4.68-4.64l1.77,1.31a19.5,19.5,0,0,1-6.22,6.06,14.71,14.71,0,0,1-7.75,2.27q-5.51,0-8.42-3.09T486,230.12a22.75,22.75,0,0,1,1.23-7.49,21.78,21.78,0,0,1,3.59-6.53,17.77,17.77,0,0,1,5.65-4.67,15.47,15.47,0,0,1,7.39-1.78q4.48,0,6.65,1.83a5.82,5.82,0,0,1,2.17,4.66,8.37,8.37,0,0,1-2.07,5.68,14.07,14.07,0,0,1-6,3.77,45.94,45.94,0,0,1-5.85,1.72M541,210.75a3.8,3.8,0,0,0-1.59-.84,7.55,7.55,0,0,0-1.93-.25,7.1,7.1,0,0,0-4,1.28,64,64,0,0,0-5.62,4.48h-0.19a6.55,6.55,0,0,0-1.06-4.06,4.23,4.23,0,0,0-3.55-1.35,12,12,0,0,0-3.2.53,31.89,31.89,0,0,0-4.3,1.62l-0.47,2c0.39-.1.95-0.23,1.65-0.39a8.45,8.45,0,0,1,1.74-.23,3.43,3.43,0,0,1,2.37.59,3.37,3.37,0,0,1,.59,2.34,12.6,12.6,0,0,1-.3,2.21c-0.19,1-.35,1.75-0.45,2.25l-4.54,20.19H522l5-22.3a24.41,24.41,0,0,1,3.28-3.15,16.9,16.9,0,0,1,2.75-1.78,10.7,10.7,0,0,1,2.07-.79,6.2,6.2,0,0,1,1.23-.2c-0.33.79-.65,1.58-1,2.39a6.07,6.07,0,0,0-.46,2.16,2.58,2.58,0,0,0,.84,1.87,3.42,3.42,0,0,0,2.52.84,3.46,3.46,0,0,0,1.91-.45,4.6,4.6,0,0,0,1.23-1.29,5.2,5.2,0,0,0,.72-1.73,8.25,8.25,0,0,0,.25-1.91,7.3,7.3,0,0,0-.32-2.48,4.12,4.12,0,0,0-1-1.5m13.84,27.39a4.6,4.6,0,0,1-3.1-.8,3.28,3.28,0,0,1-.86-2.51,11.3,11.3,0,0,1,.19-1.88c0.12-.74.28-1.5,0.47-2.29l4-17.15h8.59l0.65-2.83h-8.66l2.11-9.12h-5.6l-2.17,9.12h-5.68l-0.65,2.83h5.56l-4.85,20.79c-0.1.54-.19,1-0.25,1.44a9.35,9.35,0,0,0-.09,1.35,4.32,4.32,0,0,0,1.37,3.44,6.48,6.48,0,0,0,4.33,1.2,15.25,15.25,0,0,0,4.54-.61q1.93-.61,4.11-1.45l0.53-2.27a10.59,10.59,0,0,1-2.27.52,17.93,17.93,0,0,1-2.27.2m-336.13,0a4.05,4.05,0,0,1-2.55-.64,3,3,0,0,1-.78-2.42,10.65,10.65,0,0,1,.27-2c0.17-.86.36-1.63,0.54-2.29l2.62-10a20.45,20.45,0,0,0,.54-2.83c0.11-1,.17-1.62.17-2a6.25,6.25,0,0,0-1.68-4.53,6.18,6.18,0,0,0-4.65-1.73,11.8,11.8,0,0,0-5.64,1.32,39.81,39.81,0,0,0-5.89,4.07h-0.19a6.08,6.08,0,0,0-1.13-3.71,4.26,4.26,0,0,0-3.53-1.34,12.11,12.11,0,0,0-3.22.53,32.41,32.41,0,0,0-4.32,1.62l-0.47,2q0.59-.16,1.66-0.39a8.51,8.51,0,0,1,1.75-.23,3.45,3.45,0,0,1,2.38.59,3.37,3.37,0,0,1,.59,2.34,11.73,11.73,0,0,1-.29,2.29l-0.45,2.17-4.67,20.19h5.81l5.32-22.86a15.66,15.66,0,0,1,4.41-3.62,9.19,9.19,0,0,1,4.24-1.25,3.56,3.56,0,0,1,2.93,1.22,5.08,5.08,0,0,1,1,3.3,10.09,10.09,0,0,1-.2,1.74c-0.13.73-.32,1.54-0.55,2.43l-3.07,11.62a19.12,19.12,0,0,0-.41,1.95,10.76,10.76,0,0,0-.12,1.51,4.41,4.41,0,0,0,1.25,3.19,5,5,0,0,0,3.75,1.29,10,10,0,0,0,3.16-.51q1.56-.51,4.37-1.63l0.47-2a10.66,10.66,0,0,1-1.7.42,10.51,10.51,0,0,1-1.7.2m-85.34-17.39q0-4.42-1.58-6.63a5.21,5.21,0,0,0-4.53-2.21,8.38,8.38,0,0,0-4.87,1.59,12.43,12.43,0,0,0-3.94,5.17,24.08,24.08,0,0,0-1.87,6,35.18,35.18,0,0,0-.59,6.12q0,4.45,1.54,6.75a5.23,5.23,0,0,0,4.65,2.29,7.58,7.58,0,0,0,4.92-1.75,13.24,13.24,0,0,0,3.49-4.42,24.21,24.21,0,0,0,2.05-6,33.2,33.2,0,0,0,.72-6.93m3.22-7.68a12.51,12.51,0,0,1,3.13,8.86,22.78,22.78,0,0,1-1.25,7.35,19.46,19.46,0,0,1-3.61,6.45,18.32,18.32,0,0,1-5.77,4.59,16.94,16.94,0,0,1-7.82,1.73,11.15,11.15,0,0,1-8.39-3.33,12.39,12.39,0,0,1-3.22-9,21.56,21.56,0,0,1,5-14,17.73,17.73,0,0,1,5.78-4.38,16.89,16.89,0,0,1,7.45-1.67q5.53,0,8.66,3.38m-57,7.68q0-4.42-1.57-6.63a5.22,5.22,0,0,0-4.53-2.21,8.37,8.37,0,0,0-4.87,1.59,12.41,12.41,0,0,0-3.93,5.17,23.89,23.89,0,0,0-1.87,6,35,35,0,0,0-.59,6.12q0,4.45,1.54,6.75a5.23,5.23,0,0,0,4.65,2.29,7.59,7.59,0,0,0,4.92-1.75,13.2,13.2,0,0,0,3.48-4.42,24.12,24.12,0,0,0,2.06-6,33.35,33.35,0,0,0,.72-6.93M82.8,213a12.51,12.51,0,0,1,3.13,8.86,22.78,22.78,0,0,1-1.25,7.35,19.38,19.38,0,0,1-3.61,6.45,18.36,18.36,0,0,1-5.77,4.59A17,17,0,0,1,67.47,242a11.15,11.15,0,0,1-8.39-3.33,12.37,12.37,0,0,1-3.22-9,21.55,21.55,0,0,1,5-14,17.69,17.69,0,0,1,5.77-4.38,16.89,16.89,0,0,1,7.46-1.67q5.53,0,8.66,3.38m-33,25.06a3.92,3.92,0,0,1-2.53-.64,3.1,3.1,0,0,1-.75-2.42,11.51,11.51,0,0,1,.25-2q0.25-1.29.53-2.29l2.62-10a20.12,20.12,0,0,0,.54-2.83,19.45,19.45,0,0,0,.17-2,6.43,6.43,0,0,0-1.6-4.53,5.91,5.91,0,0,0-4.57-1.73,12.27,12.27,0,0,0-6,1.44,39.17,39.17,0,0,0-5.91,4.2H32.41a6.07,6.07,0,0,0-1.95-4,6.32,6.32,0,0,0-4.49-1.6,11.89,11.89,0,0,0-5.62,1.25,42.57,42.57,0,0,0-6,4.14H14.13A6.17,6.17,0,0,0,13,211.35,4.22,4.22,0,0,0,9.47,210a12,12,0,0,0-3.22.53,32.48,32.48,0,0,0-4.32,1.63l-0.47,2,1.67-.42a7.87,7.87,0,0,1,1.77-.26,3.39,3.39,0,0,1,2.31.57,3.42,3.42,0,0,1,.59,2.38,11.81,11.81,0,0,1-.23,2.12q-0.23,1.25-.48,2.34L2.43,241.09H8.24l5.32-22.86a15.42,15.42,0,0,1,4.95-4,10.2,10.2,0,0,1,3.9-.89,3.71,3.71,0,0,1,3,1.15,4.66,4.66,0,0,1,1,3.18,7.17,7.17,0,0,1-.14,1.14c-0.09.51-.19,1-0.29,1.45L21,241.09H26.8L32.26,218a16.66,16.66,0,0,1,4.5-3.66,9.11,9.11,0,0,1,4.07-1,3.31,3.31,0,0,1,2.85,1.22,5.43,5.43,0,0,1,.9,3.3,10.28,10.28,0,0,1-.2,1.74c-0.14.73-.32,1.54-0.55,2.43l-3.08,11.62c-0.19.75-.32,1.4-0.41,1.95a10.16,10.16,0,0,0-.13,1.51,4.43,4.43,0,0,0,1.25,3.19,5,5,0,0,0,3.75,1.29,11.75,11.75,0,0,0,2.94-.45,41.6,41.6,0,0,0,4.59-1.6l0.47-2a8.39,8.39,0,0,1-1.72.37,13.1,13.1,0,0,1-1.72.16m51,0a4.61,4.61,0,0,1-3.1-.8,3.29,3.29,0,0,1-.85-2.51A11.3,11.3,0,0,1,97,233c0.12-.74.28-1.5,0.46-2.29l4-17.15h8.59l0.65-2.83H102.1l2.11-9.12h-5.6l-2.17,9.12H90.75l-0.65,2.83h5.56L90.81,234.3c-0.1.54-.18,1-0.25,1.44a9,9,0,0,0-.09,1.35,4.32,4.32,0,0,0,1.37,3.44,6.48,6.48,0,0,0,4.32,1.2,15.25,15.25,0,0,0,4.54-.61q1.93-.61,4.11-1.45l0.53-2.27a10.59,10.59,0,0,1-2.27.52,17.89,17.89,0,0,1-2.27.2m68.1-27.39a3.79,3.79,0,0,0-1.59-.84,7.56,7.56,0,0,0-1.93-.25,7.1,7.1,0,0,0-4,1.28,63.27,63.27,0,0,0-5.62,4.48h-0.19a6.55,6.55,0,0,0-1.06-4.06A4.23,4.23,0,0,0,151,210a12,12,0,0,0-3.2.53,31.76,31.76,0,0,0-4.3,1.62l-0.47,2c0.39-.1.94-0.23,1.65-0.39a8.49,8.49,0,0,1,1.74-.23,3.41,3.41,0,0,1,2.36.59,3.37,3.37,0,0,1,.59,2.34,12.77,12.77,0,0,1-.3,2.21c-0.2,1-.35,1.75-0.45,2.25l-4.54,20.19h5.8l5-22.3a24.13,24.13,0,0,1,3.28-3.15,16.8,16.8,0,0,1,2.74-1.78,10.7,10.7,0,0,1,2.07-.79,6.2,6.2,0,0,1,1.23-.2c-0.33.79-.65,1.58-1,2.39a6,6,0,0,0-.47,2.16,2.57,2.57,0,0,0,.84,1.87,3.41,3.41,0,0,0,2.52.84,3.45,3.45,0,0,0,1.91-.45,4.61,4.61,0,0,0,1.23-1.29,5.15,5.15,0,0,0,.71-1.73,8.13,8.13,0,0,0,.25-1.91,7.29,7.29,0,0,0-.33-2.48,4.1,4.1,0,0,0-1-1.5m14.5,27.48a4,4,0,0,1-2.56-.66,3,3,0,0,1-.79-2.43,10.19,10.19,0,0,1,.23-1.91c0.16-.78.33-1.57,0.54-2.38l3.31-13.24a16.23,16.23,0,0,0,.38-1.93,12.71,12.71,0,0,0,.13-1.53,4.56,4.56,0,0,0-1.16-3.27,4.91,4.91,0,0,0-3.7-1.22,12.34,12.34,0,0,0-3,.53,30.48,30.48,0,0,0-4.35,1.62l-0.47,2c0.39-.11,1-0.23,1.72-0.37a10.3,10.3,0,0,1,1.82-.22,2.32,2.32,0,0,1,2.92,2.9,11.28,11.28,0,0,1-.24,2.12c-0.16.83-.31,1.61-0.48,2.33l-3.29,13.24c-0.19.79-.32,1.44-0.4,2a9.45,9.45,0,0,0-.13,1.49,4.43,4.43,0,0,0,1.25,3.19,5,5,0,0,0,3.74,1.29,11.93,11.93,0,0,0,2.93-.45,41.33,41.33,0,0,0,4.57-1.6l0.47-2a8.57,8.57,0,0,1-1.69.37,13,13,0,0,1-1.69.16m4.47-43.12a3.94,3.94,0,0,1,1.12,2.78,4.58,4.58,0,0,1-1.15,3.1,3.65,3.65,0,0,1-2.87,1.32,3.58,3.58,0,0,1-2.74-1.26,4.15,4.15,0,0,1-1.15-2.88,4.32,4.32,0,0,1,1.15-3,3.57,3.57,0,0,1,2.74-1.28,3.77,3.77,0,0,1,2.89,1.2" transform="translate(0 -3.66)"/></svg>