<svg id="Layer_1" data-name="Layer 1" xmlns="http://www.w3.org/2000/svg" viewBox="0 0 597.69 580"><defs><style>.cls-1{fill:#fff;opacity:0.1;}</style></defs><title>mid-full-icon-white</title><path class="cls-1" d="M241.78,433.54c0-29.22,24.64-52.91,55-52.87s54.95,23.66,54.95,52.87L372.21,580a298.64,298.64,0,0,0,138.32-77.93l-115.33-89.9c-25.3-14.61-33.5-47.76-18.29-74.07s48-35.76,73.25-21.17l137.08,55.51a298.61,298.61,0,0,0,1.71-158.75L453.37,268.63c-25.27,14.61-58.08,5.15-73.29-21.18s-7-59.45,18.29-74L514.93,82.52A298.59,298.59,0,0,0,378.37,1.63L358.2,146.47v0c0,29.21-24.62,52.87-55,52.87s-54.95-23.67-54.95-52.87v0L227.74,0A298.69,298.69,0,0,0,89.45,77.93l115.34,89.94c25.3,14.58,33.5,47.75,18.29,74.07s-48,35.75-73.3,21.13l-137-55.5A299.64,299.64,0,0,0,11,366.3l135.55-54.92c25.35-14.6,58.13-5.15,73.37,21.19s6.94,59.43-18.32,74L85,497.5a298.45,298.45,0,0,0,136.57,80.89Z" transform="translate(-1.15)"/></svg>