<svg id="Layer_1" data-name="Layer 1" xmlns="http://www.w3.org/2000/svg" viewBox="0 0 200 194.08"><defs><style>.cls-1{fill:#fff;}</style></defs><title>sml-full-icon-white</title><path class="cls-1" d="M80.52,145.07c0-9.78,8.25-17.7,18.41-17.69s18.39,7.92,18.39,17.69l6.85,49A99.93,99.93,0,0,0,170.45,168l-38.59-30.08c-8.47-4.89-11.21-16-6.12-24.79s16.06-12,24.51-7.08l45.87,18.58a99.92,99.92,0,0,0,.57-53.12L151.32,89.89c-8.46,4.89-19.44,1.72-24.52-7.09S124.47,62.91,132.92,58l39-30.41A99.91,99.91,0,0,0,126.22.55L119.47,49h0c0,9.77-8.24,17.69-18.41,17.69S82.68,58.79,82.68,49h0L75.82,0A100,100,0,0,0,29.55,26.08L68.14,56.17c8.47,4.88,11.21,16,6.12,24.79S58.2,92.92,49.73,88L3.88,69.46a100.27,100.27,0,0,0-.58,53.12l45.36-18.38c8.48-4.88,19.45-1.72,24.55,7.09s2.32,19.89-6.13,24.77l-39,30.42a99.87,99.87,0,0,0,45.7,27.07Z"/></svg>